<?xml version="1.0" encoding="UTF-8" standalone="yes"?>
<svg xmlns="http://www.w3.org/2000/svg" xmlns:xlink="http://www.w3.org/1999/xlink" version="1.0" x="0" y="0" width="360" height="240">
<rect width="360" height="240" x="0" y="0" fill="#ffffff" />
  <polygon points="360,0 0,240 360,240" fill="#fcd116" />
<circle cx="180" cy="120" r="90" fill="#75aadb" />
<g transform="translate(180.000000,120.000000)">
<g transform="scale(0.150000)">
<g transform="translate(-500.000000,-480.000000)">

<g transform="translate(0.000000,511.000000) scale(0.100000,-0.100000)"><path d="M2473.9,4674c-543.7-40.2-1156.3-216.3-1527.7-436.5C444.6,3938.8,100,3429.6,100,2985.4c0-480.5,402-899.8,1039.5-1081.7c323.5-93.8,740.9-97.6,1120-15.3c86.1,21.1,157,30.6,157,23c0-7.7-11.5-101.5-26.8-212.5c-38.3-268-68.9-733.2-68.9-1020.4c0-871.1,164.6-1556.4,587.7-2452.4c382.9-807.9,413.5-878.7,390.5-909.4c-53.6-70.8-97.6-187.6-97.6-258.4c0-149.3,181.9-863.4,264.2-1041.5c114.9-248.9,327.4-365.6,721.8-392.5c84.2-7.6,235.5-28.7,335-49.8c250.8-51.7,694.9-53.6,953.4-1.9c103.4,19.1,287.2,42.1,411.6,47.9c273.8,15.3,394.4,55.5,507.3,168.5c44,42.1,101.5,122.5,128.3,176.1c88,181.9,277.6,930.4,277.6,1089.3c0,57.4-47.9,176.1-99.6,247c-24.9,34.5,9.6,118.7,373.3,886.4C7411.3-1100,7566.3-608,7646.7-3c51.7,392.5,23,1372.7-53.6,1855.1l-11.5,72.8l158.9-34.5c381-84.2,798.3-80.4,1121.9,13.4c534.1,151.3,909.4,472.9,1010.8,859.6c128.3,497.8-214.4,1116.1-819.4,1476c-398.2,237.4-997.4,398.2-1621.5,440.3c-111,5.7-197.2,7.7-191.4,1.9c5.7-5.8,99.6-46,210.6-90c497.8-195.3,832.8-463.3,984-784.9c76.6-160.8,78.5-296.7,11.5-421.2c-95.7-170.4-289.1-264.2-637.5-308.2c-237.4-30.6-1070.2-32.5-1621.5-1.9c-247,11.5-781.1,23-1186.9,23c-405.9,0-940-11.5-1187-23c-551.4-30.6-1384.1-28.7-1621.5,1.9c-348.4,44-541.8,137.8-637.5,308.2c-67,124.4-65.1,260.4,11.5,421.2c151.2,321.6,486.3,589.6,984,784.9c111,44,204.8,84.2,208.7,88.1C2768.7,4687.4,2617.5,4685.5,2473.9,4674z M3235.9,659.4c-38.3-111-44-250.8-13.4-331.2c26.8-72.7,124.4-172.3,212.5-218.3c91.9-47.9,225.9-45.9,321.6,1.9c42.1,21.1,91.9,38.3,111,38.3c42.1,0,109.1-67,91.9-93.8c-15.3-24.9-333.1-97.6-426.9-97.6c-166.6,0-306.3,84.2-379.1,229.7c-40.2,80.4-111,377.1-153.2,645.2L2987,914l141.7-78.5l141.7-78.5L3235.9,659.4z M7001.6,835.5c-46-287.2-113-566.7-153.2-647.1c-72.7-145.5-212.5-229.7-377.1-229.7c-101.5,0-436.5,78.5-436.5,101.5c0,32.5,61.3,90,95.7,90c17.2,0,67-17.2,111-38.3c99.6-47.9,233.6-49.8,325.4-1.9c88.1,46,185.7,145.5,212.5,218.3c30.6,80.4,24.9,220.2-13.4,331.2l-34.5,97.7l134,78.5c74.6,42.1,139.7,76.6,141.7,78.5C7011.2,915.9,7009.2,879.5,7001.6,835.5z M4032.3-2964.7c-26.8-59.3-30.6-239.3-9.6-314c11.5-40.2,76.6-147.4,145.5-239.3c68.9-93.8,124.4-176.1,124.4-183.8c0-24.9-95.7-40.2-185.7-26.8c-245,32.5-448,285.2-421.2,522.6c13.4,118.7,103.4,208.7,262.3,256.5C4030.4-2924.4,4049.5-2928.3,4032.3-2964.7z M6149.6-2989.5c103.4-53.6,157-120.6,166.6-216.3c26.8-237.4-176.1-490.1-421.2-522.6c-90-13.4-185.7,1.9-185.7,26.8c0,7.7,55.5,90,122.5,181.9c68.9,91.9,134,197.2,145.5,235.5c23,70.8,17.2,256.5-9.6,321.6c-13.4,30.6-9.6,34.5,49.8,21.1C6053.9-2949.3,6113.3-2970.4,6149.6-2989.5z" fill="#ffffff" stroke="#000" stroke-width="80" /></g>
</g>
</g>
</g>
</svg>

